<?xml version="1.0" encoding="UTF-8"?>
<svg id="Layer_1" xmlns="http://www.w3.org/2000/svg" xmlns:xlink="http://www.w3.org/1999/xlink" version="1.1" viewBox="0 0 2834.6 2324">
  <!-- Generator: Adobe Illustrator 30.2.1, SVG Export Plug-In . SVG Version: 2.1.1 Build 1)  -->
  <defs>
    <style>
      .st0 {
        fill: url(#linear-gradient2);
      }

      .st1 {
        fill: url(#linear-gradient1);
      }

      .st2 {
        fill: url(#linear-gradient9);
      }

      .st3 {
        fill: url(#linear-gradient3);
      }

      .st4 {
        fill: url(#linear-gradient6);
      }

      .st5 {
        fill: url(#linear-gradient8);
      }

      .st6 {
        fill: url(#linear-gradient7);
      }

      .st7 {
        fill: url(#linear-gradient5);
      }

      .st8 {
        fill: url(#linear-gradient4);
      }

      .st9 {
        fill: url(#linear-gradient31);
      }

      .st10 {
        fill: url(#linear-gradient30);
      }

      .st11 {
        fill: url(#linear-gradient38);
      }

      .st12 {
        fill: url(#linear-gradient32);
      }

      .st13 {
        fill: url(#linear-gradient39);
      }

      .st14 {
        fill: url(#linear-gradient34);
      }

      .st15 {
        fill: url(#linear-gradient37);
      }

      .st16 {
        fill: url(#linear-gradient35);
      }

      .st17 {
        fill: url(#linear-gradient33);
      }

      .st18 {
        fill: url(#linear-gradient36);
      }

      .st19 {
        fill: url(#linear-gradient40);
      }

      .st20 {
        fill: url(#linear-gradient41);
      }

      .st21 {
        fill: url(#linear-gradient42);
      }

      .st22 {
        fill: url(#linear-gradient46);
      }

      .st23 {
        fill: url(#linear-gradient48);
      }

      .st24 {
        fill: url(#linear-gradient43);
      }

      .st25 {
        fill: url(#linear-gradient44);
      }

      .st26 {
        fill: url(#linear-gradient47);
      }

      .st27 {
        fill: url(#linear-gradient45);
      }

      .st28 {
        fill: url(#linear-gradient49);
      }

      .st29 {
        fill: url(#linear-gradient28);
      }

      .st30 {
        fill: url(#linear-gradient29);
      }

      .st31 {
        fill: url(#linear-gradient18);
      }

      .st32 {
        fill: url(#linear-gradient13);
      }

      .st33 {
        fill: url(#linear-gradient12);
      }

      .st34 {
        fill: url(#linear-gradient15);
      }

      .st35 {
        fill: url(#linear-gradient16);
      }

      .st36 {
        fill: url(#linear-gradient11);
      }

      .st37 {
        fill: url(#linear-gradient10);
      }

      .st38 {
        fill: url(#linear-gradient17);
      }

      .st39 {
        fill: url(#linear-gradient14);
      }

      .st40 {
        fill: url(#linear-gradient19);
      }

      .st41 {
        fill: url(#linear-gradient23);
      }

      .st42 {
        fill: url(#linear-gradient22);
      }

      .st43 {
        fill: url(#linear-gradient24);
      }

      .st44 {
        fill: url(#linear-gradient25);
      }

      .st45 {
        fill: url(#linear-gradient21);
      }

      .st46 {
        fill: url(#linear-gradient20);
      }

      .st47 {
        fill: url(#linear-gradient27);
      }

      .st48 {
        fill: url(#linear-gradient26);
      }

      .st49 {
        fill: url(#linear-gradient);
      }

      .st50 {
        fill: #664493;
      }

      .st51 {
        fill: #37a9e0;
      }
    </style>
    <linearGradient id="linear-gradient" x1="-528.9" y1="2119.1" x2="983.8" y2="-500.9" gradientUnits="userSpaceOnUse">
      <stop offset=".1" stop-color="#921e80"/>
      <stop offset=".3" stop-color="#794198"/>
      <stop offset=".5" stop-color="#5b6db6"/>
      <stop offset=".7" stop-color="#458ccc"/>
      <stop offset=".9" stop-color="#38a0da"/>
      <stop offset="1" stop-color="#34a7df"/>
    </linearGradient>
    <linearGradient id="linear-gradient1" x1="-229.4" y1="2292.1" x2="1283.3" y2="-327.9" xlink:href="#linear-gradient"/>
    <linearGradient id="linear-gradient2" x1="-116.9" y1="2357" x2="1395.7" y2="-263" xlink:href="#linear-gradient"/>
    <linearGradient id="linear-gradient3" x1="-537.9" y1="2113.9" x2="974.7" y2="-506.1" xlink:href="#linear-gradient"/>
    <linearGradient id="linear-gradient4" x1="-715.9" y1="2011.1" x2="796.7" y2="-608.9" xlink:href="#linear-gradient"/>
    <linearGradient id="linear-gradient5" x1="174.9" y1="2525.5" x2="1687.6" y2="-94.5" xlink:href="#linear-gradient"/>
    <linearGradient id="linear-gradient6" x1="-487.4" y1="2143.1" x2="1025.2" y2="-476.9" xlink:href="#linear-gradient"/>
    <linearGradient id="linear-gradient7" x1="-787.5" y1="1969.8" x2="725.1" y2="-650.2" xlink:href="#linear-gradient"/>
    <linearGradient id="linear-gradient8" x1="-668.8" y1="2038.4" x2="843.9" y2="-581.6" xlink:href="#linear-gradient"/>
    <linearGradient id="linear-gradient9" x1="-185.3" y1="2317.5" x2="1327.3" y2="-302.5" xlink:href="#linear-gradient"/>
    <linearGradient id="linear-gradient10" x1="-4" y1="2422.2" x2="1508.7" y2="-197.8" xlink:href="#linear-gradient"/>
    <linearGradient id="linear-gradient11" x1="-414.4" y1="2185.2" x2="1098.3" y2="-434.7" xlink:href="#linear-gradient"/>
    <linearGradient id="linear-gradient12" x1="272.4" y1="2581.7" x2="1785" y2="-38.2" xlink:href="#linear-gradient"/>
    <linearGradient id="linear-gradient13" x1="120.4" y1="2494" x2="1633" y2="-126" xlink:href="#linear-gradient"/>
    <linearGradient id="linear-gradient14" x1="27.4" y1="2440.3" x2="1540.1" y2="-179.7" xlink:href="#linear-gradient"/>
    <linearGradient id="linear-gradient15" x1="141.6" y1="2506.3" x2="1654.3" y2="-113.7" xlink:href="#linear-gradient"/>
    <linearGradient id="linear-gradient16" x1="457.1" y1="2688.4" x2="1969.7" y2="68.4" xlink:href="#linear-gradient"/>
    <linearGradient id="linear-gradient17" x1="250.4" y1="2569" x2="1763" y2="-51" xlink:href="#linear-gradient"/>
    <linearGradient id="linear-gradient18" x1="1135.5" y1="1029.3" x2="1152.4" y2="1000" xlink:href="#linear-gradient"/>
    <linearGradient id="linear-gradient19" x1="1135.5" y1="1029.3" x2="1152.4" y2="1000" xlink:href="#linear-gradient"/>
    <linearGradient id="linear-gradient20" x1="1133.9" y1="1032.1" x2="1150.8" y2="1002.8" xlink:href="#linear-gradient"/>
    <linearGradient id="linear-gradient21" x1="1133.9" y1="1032.1" x2="1150.8" y2="1002.8" xlink:href="#linear-gradient"/>
    <linearGradient id="linear-gradient22" x1="1122.2" y1="1052.3" x2="1139.1" y2="1023" xlink:href="#linear-gradient"/>
    <linearGradient id="linear-gradient23" x1="1122.2" y1="1052.3" x2="1139.1" y2="1023" xlink:href="#linear-gradient"/>
    <linearGradient id="linear-gradient24" x1="1122.2" y1="1052.3" x2="1139.1" y2="1023" xlink:href="#linear-gradient"/>
    <linearGradient id="linear-gradient25" x1="1138.9" y1="1023.4" x2="1149" y2="1005.9" xlink:href="#linear-gradient"/>
    <linearGradient id="linear-gradient26" x1="1138.9" y1="1023.4" x2="1149" y2="1005.9" xlink:href="#linear-gradient"/>
    <linearGradient id="linear-gradient27" x1="1138.9" y1="1023.4" x2="1149" y2="1005.9" xlink:href="#linear-gradient"/>
    <linearGradient id="linear-gradient28" x1="1133.9" y1="1032.1" x2="1143.9" y2="1014.7" xlink:href="#linear-gradient"/>
    <linearGradient id="linear-gradient29" x1="1133.9" y1="1032.1" x2="1143.9" y2="1014.7" xlink:href="#linear-gradient"/>
    <linearGradient id="linear-gradient30" x1="1138.9" y1="1023.4" x2="1149" y2="1005.9" xlink:href="#linear-gradient"/>
    <linearGradient id="linear-gradient31" x1="1138.9" y1="1023.4" x2="1149" y2="1005.9" xlink:href="#linear-gradient"/>
    <linearGradient id="linear-gradient32" x1="1138.9" y1="1023.4" x2="1149" y2="1005.9" xlink:href="#linear-gradient"/>
    <linearGradient id="linear-gradient33" x1="1132.3" y1="1034.9" x2="1155.6" y2="994.5" xlink:href="#linear-gradient"/>
    <linearGradient id="linear-gradient34" x1="1132.3" y1="1034.9" x2="1155.6" y2="994.5" xlink:href="#linear-gradient"/>
    <linearGradient id="linear-gradient35" x1="1132.3" y1="1034.9" x2="1155.6" y2="994.5" xlink:href="#linear-gradient"/>
    <linearGradient id="linear-gradient36" x1="1132.3" y1="1034.9" x2="1155.6" y2="994.5" xlink:href="#linear-gradient"/>
    <linearGradient id="linear-gradient37" x1="1132.3" y1="1034.9" x2="1155.6" y2="994.5" xlink:href="#linear-gradient"/>
    <linearGradient id="linear-gradient38" x1="1122.2" y1="1052.3" x2="1145.5" y2="1011.9" xlink:href="#linear-gradient"/>
    <linearGradient id="linear-gradient39" x1="1122.2" y1="1052.3" x2="1145.5" y2="1011.9" xlink:href="#linear-gradient"/>
    <linearGradient id="linear-gradient40" x1="1122.2" y1="1052.3" x2="1145.5" y2="1011.9" xlink:href="#linear-gradient"/>
    <linearGradient id="linear-gradient41" x1="1132.3" y1="1034.9" x2="1155.6" y2="994.5" xlink:href="#linear-gradient"/>
    <linearGradient id="linear-gradient42" x1="1132.3" y1="1034.9" x2="1155.6" y2="994.5" xlink:href="#linear-gradient"/>
    <linearGradient id="linear-gradient43" x1="1132.3" y1="1034.9" x2="1155.6" y2="994.5" xlink:href="#linear-gradient"/>
    <linearGradient id="linear-gradient44" x1="1132.3" y1="1034.9" x2="1155.6" y2="994.5" xlink:href="#linear-gradient"/>
    <linearGradient id="linear-gradient45" x1="1132.3" y1="1034.9" x2="1155.6" y2="994.5" xlink:href="#linear-gradient"/>
    <linearGradient id="linear-gradient46" x1="1132.3" y1="1034.9" x2="1155.6" y2="994.5" xlink:href="#linear-gradient"/>
    <linearGradient id="linear-gradient47" x1="1122.2" y1="1052.3" x2="1145.5" y2="1011.9" xlink:href="#linear-gradient"/>
    <linearGradient id="linear-gradient48" x1="1122.2" y1="1052.3" x2="1145.5" y2="1011.9" xlink:href="#linear-gradient"/>
    <linearGradient id="linear-gradient49" x1="1122.2" y1="1052.3" x2="1145.5" y2="1011.9" xlink:href="#linear-gradient"/>
  </defs>
  <g>
    <path class="st50" d="M1166.6,1430.9c0-18.7-5.5-35.8-16.4-51.4-10.9-15.6-25.2-26.6-43-33,9.4-3.5,19.3-5.3,29.8-5.3,27.3,0,50,10.6,68.1,31.9,23-21.2,50.1-31.9,81.2-31.9s65.7,13.6,89.7,40.6c.6-.8,2.3-2.6,5.2-5.6,23.2-23.4,51.3-35.1,84.4-35.1s61.4,11.7,84.7,35.1c23.4,23,35.1,51.1,35.1,84.4v209.5c0,20.1-10,30.1-30.1,30.1s-29.8-10-29.8-30.1v-209.5c0-16.9-5.8-31.1-17.5-42.4-11.5-11.5-25.6-17.2-42.4-17.2s-30.9,5.8-42.4,17.2c-11.5,11.5-17.2,25.6-17.2,42.4v208h-.3c.2.2.3.7.3,1.5,0,5.3-1.5,10.4-4.4,15.5-5.8,9.7-14.4,14.6-25.7,14.6-19.9,0-29.8-10-29.8-30.1v-209.5c0-16.9-5.9-31.1-17.5-42.4-11.5-11.5-25.6-17.2-42.4-17.2s-30.8,5.8-42.7,17.2c-11.5,11.5-17.2,25.6-17.2,42.4v209.5c0,20.1-9.9,30.1-29.8,30.1s-30.1-10-30.1-30.1v-239.3Z"/>
    <path class="st50" d="M1867.5,1610.3c0,19.5,5.3,36.9,16.1,52.3,10.7,15.4,25.2,26.2,43.5,32.4-10.1,3.5-20.1,5.3-29.8,5.3-27.7,0-50.4-10.7-68.4-32.1-23.6,21.4-50.6,32.1-81.2,32.1s-61.5-11.6-85-34.8c-23.2-23.6-34.8-51.9-34.8-85v-119.8c0-33.3,11.6-61.5,34.8-84.7,23.6-23.2,51.9-34.8,85-34.8s61.4,11.7,84.7,35.1c23.4,23,35.1,51.1,35.1,84.4v149.6ZM1705,1418.4c-11.5,11.5-17.2,25.6-17.2,42.4v119.8c0,16.9,5.7,31.2,17.2,42.7,11.5,11.5,25.7,17.2,42.7,17.2s30.9-5.7,42.4-17.2c11.7-11.7,17.5-25.9,17.5-42.7v-119.8c0-16.9-5.9-31.1-17.5-42.4-11.5-11.5-25.6-17.2-42.4-17.2s-30.8,5.8-42.7,17.2Z"/>
    <path class="st50" d="M1947.5,1430.9c0-18.7-5.5-35.8-16.4-51.4-10.9-15.6-25.2-26.6-42.9-33,9.3-3.5,19.3-5.3,29.8-5.3,27.3,0,50,10.6,68.1,31.9,23-21.2,50.1-31.9,81.2-31.9s61.4,11.7,84.7,35.1c23.4,23,35.1,51.1,35.1,84.4v208h-.3c.2.2.3.7.3,1.5,0,20.1-10,30.1-30.1,30.1s-29.8-10-29.8-30.1v-209.5c0-16.9-5.8-31.1-17.6-42.4-11.5-11.5-25.6-17.2-42.3-17.2s-30.8,5.8-42.7,17.2c-11.5,11.5-17.2,25.6-17.2,42.4v209.5c0,20.1-9.9,30.1-29.8,30.1s-30.1-10-30.1-30.1v-239.3Z"/>
    <path class="st50" d="M2477.5,1849.6c0,24.9-8.8,46.1-26.3,63.4-17.5,17.5-38.8,26.3-63.7,26.3s-20.5-1.7-29.8-5.3c18.1-6.6,32.5-17.5,43.2-32.7,11.1-15.6,16.7-32.8,16.7-51.7v-165.7c-18.5,10.9-38.5,16.4-59.9,16.4-33.1,0-61.5-11.6-85-34.8-23.2-23.6-34.8-51.9-34.8-85v-119.8c0-33.3,11.6-61.5,34.8-84.7,23.6-23.2,51.9-34.8,85-34.8s61.4,11.7,84.7,35.1c23.4,23,35.1,51.1,35.1,84.4v388.9ZM2400.1,1623.2c11.7-11.7,17.5-25.9,17.5-42.7v-119.8c0-16.9-5.8-31.1-17.5-42.4-11.5-11.5-25.6-17.2-42.4-17.2s-30.8,5.8-42.7,17.2c-11.5,11.5-17.2,25.6-17.2,42.4v119.8c0,16.9,5.7,31.2,17.2,42.7,11.5,11.5,25.7,17.2,42.7,17.2s30.9-5.7,42.4-17.2Z"/>
    <path class="st50" d="M2775,1610.3c0,19.5,5.4,36.9,16.1,52.3,10.7,15.4,25.2,26.2,43.5,32.4-10.1,3.5-20.1,5.3-29.8,5.3-27.7,0-50.5-10.7-68.4-32.1-23.6,21.4-50.7,32.1-81.2,32.1s-61.5-11.6-85-34.8c-23.2-23.6-34.8-51.9-34.8-85v-119.8c0-33.3,11.6-61.5,34.8-84.7,23.6-23.2,51.9-34.8,85-34.8s61.4,11.7,84.7,35.1c23.4,23,35.1,51.1,35.1,84.4v149.6ZM2612.6,1418.4c-11.5,11.5-17.2,25.6-17.2,42.4v119.8c0,16.9,5.7,31.2,17.2,42.7,11.5,11.5,25.7,17.2,42.7,17.2s30.9-5.7,42.4-17.2c11.7-11.7,17.5-25.9,17.5-42.7v-119.8c0-16.9-5.8-31.1-17.5-42.4-11.5-11.5-25.6-17.2-42.4-17.2s-30.8,5.8-42.7,17.2Z"/>
  </g>
  <g>
    <path class="st51" d="M1165.8,1753.7c6.7-1.1,15.5-2.1,26.6-2.1s23.7,3.2,30.1,8.9c5.9,5.1,9.4,12.9,9.4,22.5s-2.9,17.4-8.3,22.9c-7.3,7.8-19.3,11.8-32.8,11.8s-8-.2-11.2-1v43h-13.9v-106.1ZM1179.7,1805.5c3,.8,6.9,1.1,11.5,1.1,16.7,0,26.9-8.1,26.9-22.9s-10-21-25.3-21-10.7.5-13.1,1.1v41.7Z"/>
    <path class="st51" d="M1273.7,1753.9c7-1.4,17-2.2,26.6-2.2,14.8,0,24.4,2.7,31.1,8.8,5.4,4.8,8.4,12.1,8.4,20.4,0,14.2-8.9,23.6-20.2,27.4v.5c8.3,2.9,13.2,10.5,15.8,21.7,3.5,15,6.1,25.3,8.3,29.5h-14.3c-1.8-3-4.1-12.3-7.2-25.7-3.2-14.8-8.9-20.4-21.5-20.9h-13.1v46.5h-13.9v-106ZM1287.6,1802.8h14.2c14.8,0,24.2-8.1,24.2-20.4s-10-19.9-24.7-20.1c-6.7,0-11.5.6-13.7,1.3v39.2Z"/>
    <path class="st51" d="M1474.7,1805c0,37-22.5,56.6-49.9,56.6s-48.3-22-48.3-54.5,21.2-56.4,49.9-56.4,48.3,22.5,48.3,54.3ZM1391.4,1806.8c0,22.9,12.4,43.5,34.3,43.5s34.4-20.2,34.4-44.6-11.2-43.6-34.3-43.6-34.4,21.2-34.4,44.8Z"/>
    <path class="st51" d="M1515.9,1753.9c8.4-1.3,18.5-2.2,29.5-2.2,19.9,0,34.1,4.6,43.5,13.4,9.6,8.8,15.1,21.2,15.1,38.5s-5.4,31.9-15.5,41.7c-10,10-26.6,15.4-47.5,15.4s-18.2-.5-25.2-1.3v-105.6ZM1529.7,1848.8c3.5.6,8.6.8,14,.8,29.6,0,45.7-16.6,45.7-45.6.2-25.3-14.2-41.4-43.5-41.4s-12.6.6-16.2,1.4v84.8Z"/>
    <path class="st51" d="M1659,1752.4v63.6c0,24.1,10.7,34.3,25,34.3s26.1-10.5,26.1-34.3v-63.6h14v62.6c0,33-17.4,46.5-40.6,46.5s-38.6-12.6-38.6-45.9v-63.3h14Z"/>
    <path class="st51" d="M1846.4,1856.3c-5.1,2.5-15.3,5.1-28.4,5.1-30.3,0-53.1-19.1-53.1-54.3s22.8-56.4,56.1-56.4,21.8,2.9,25.5,4.8l-3.3,11.3c-5.3-2.5-12.7-4.5-21.7-4.5-25.2,0-41.9,16.1-41.9,44.3s15.1,43.2,41.3,43.2,17-1.8,22.6-4.5l2.9,11Z"/>
    <path class="st51" d="M1911.7,1764.2h-32.7v-11.8h79.5v11.8h-32.8v95.6h-14v-95.6Z"/>
    <path class="st51" d="M2007.3,1752.4v107.4h-13.9v-107.4h13.9Z"/>
    <path class="st51" d="M2146.3,1805c0,37-22.5,56.6-49.9,56.6s-48.3-22-48.3-54.5,21.2-56.4,49.9-56.4,48.3,22.5,48.3,54.3ZM2062.9,1806.8c0,22.9,12.4,43.5,34.3,43.5s34.4-20.2,34.4-44.6-11.2-43.6-34.3-43.6-34.4,21.2-34.4,44.8Z"/>
    <path class="st51" d="M2187.4,1859.8v-107.4h15.1l34.4,54.3c8,12.6,14.2,23.9,19.3,34.9l.3-.2c-1.3-14.3-1.6-27.4-1.6-44.1v-44.9h13.1v107.4h-14l-34.1-54.5c-7.5-12-14.7-24.2-20.1-35.8l-.5.2c.8,13.5,1.1,26.4,1.1,44.3v45.9h-13.1Z"/>
    <path class="st51" d="M2313.5,1842.9c6.2,3.8,15.3,7,24.9,7,14.2,0,22.5-7.5,22.5-18.3s-5.7-15.8-20.2-21.3c-17.5-6.2-28.4-15.3-28.4-30.4s13.9-29.2,34.7-29.2,19,2.5,23.7,5.3l-3.8,11.3c-3.5-1.9-10.7-5.1-20.4-5.1-14.7,0-20.2,8.8-20.2,16.1s6.5,15,21.3,20.7c18.2,7,27.4,15.8,27.4,31.5s-12.3,30.9-37.6,30.9-21.7-3-27.4-6.9l3.5-11.6Z"/>
  </g>
  <g>
    <path class="st49" d="M440.7,352.9c-43.1,7.9-94.6,36.2-126.3,61.2-44.7,35.4-80.1,81-106.2,129.1-45.3,83.1-63.8,174.4-57.3,237.9l.5,6.5,3.5-5.6c12.1-20.6,29.9-33.5,51.3-42.1,21.5-8.5,46.8-13,73.8-16.4,54-7.3,114.8-11.4,165.1-41.9,68.2-41.3,95.4-102.3,75.3-156-11.9-31.4-33.1-52.4-56.4-61.5-23.3-8.9-49.6-6.3-69.7,11-42.8,37-21.9,91.2,12.8,115-14.4-20.9-16.3-38.8-13.8-49.5,2.5-10.7,9.6-18.4,18.7-22.7,18.5-8.5,45.1-2.6,58.7,25.6,12.2,24.7,9.8,62.3-24.9,95.8-31.8,31.1-82.5,48.2-123.9,42.4-20.8-3-39.4-11.7-52.3-27.1-13-15.3-20.8-37.6-19.5-68.2,1.8-50.2,23.7-107,75.8-158.8,32.7-32.6,74.7-56.5,114.9-74.7Z"/>
    <path class="st1" d="M552.3,662.1c-126.4,199.8-217.7,460.2-207.7,669.3,35.6-226.8,210.3-377.2,392.6-435-70.9,7.4-135.5-26.8-169.9-73.9-16.8-23-24.8-50.8-25.9-79-.6-14.3.4-28.7,2.6-42.9,1.6-10.8,2.4-29.1,8.3-38.5Z"/>
    <path class="st0" d="M629,1072.3c77.4-55.9,169-85.6,255.9-150.5,84.1-63,112.8-157.4,96.2-261.5-4.7-29.8-7.2-63.4-1.2-94.6,5.9-31.2,21.5-58.9,50.1-81.6,62.9-50,178.4-66.1,282.7-10.6-7-4.4-14.2-8.9-21.8-13.1-112.4-61.9-269.2-64.9-355.1,20.8-20.9-60.7-74.5-91.1-131.4-96.3-58.3-5.5-120.1,14.7-154,54.5-26.8,31.2-29.2,62.8-16.8,83.2,15.4-70.7,97.9-129.2,197.4-89.8,34.5,13.6,51.3,37.1,49.5,59.3-3.5,44.6-54.9,54.6-89.6,63.9,5.1-1.4,12.2,2.9,16.9,4.6,19,6.9,34.9,17.6,49.5,31.5,18.3,17.4,34.4,38.2,45.6,60.9.5,1.1,1.1,2.2,1.6,3.3,26.9,57.5,15.7,125.9-24.2,174.5-65.1,79.2-167.9,112.5-253.3,163.6-12,7.2-23.9,14.6-35.7,22.2-194.6,126.1-278.3,389.6-246.6,670.1,1.8-334.8,121.2-496.8,284.2-614.5Z"/>
    <path class="st3" d="M106.6,904.6s81.5,16.3,126.1-38.4c0,0,46.9-115.4,91.8-131,0,0-185.2,6.7-217.9,169.4Z"/>
    <path class="st8" d="M313.9,285.7c38.1-54.2,154.6-14.6,154.6-14.6C366.9,16.3,265.3,0,265.3,0c83.5,130.8,48.6,285.7,48.6,285.7Z"/>
    <path class="st7" d="M1334.6,818.2c-90.5-37-216.4-74.6-315.1-57.1v2c-8.7,60.4-48.7,121.1-83,161.3,124.5-109.2,285.8-128,398.2-106.2Z"/>
    <path class="st4" d="M426.1,420.6c47.1-19.2,109,21.8,109,21.8-7-21.8,13.1-82,13.1-82,45-81.3,154-133.5,228.6-161-134-21-243.5-1.7-289.4,9.1,44.8,149.8-61.3,212.1-61.3,212.1Z"/>
    <path class="st6" d="M257,320.8s91.9-108.3-8.7-307.6c0,0,26.1,190.5,0,206,0,0-79.3,25.2-86.1,89.6,0,0,96.2-108.4,94.8,11.9Z"/>
    <path class="st5" d="M478.3,301.6s-84.9-33.6-202.5,38.3c-18.5,11.3-58.2,20.6-77.6,7.4-12.2-8.3-11.7-22.2-4.7-34.1,10.9-18.7,30.6-21,49.2-11.6,0,0-60.7-44.4-76,64.7,0,0,5.5,49.7,59.4,28.9,0,0-106.2,121.4-134,224.6,0,0-24.5,55.7-51.7,69.1,0,0-85.9,118.9-6.8,194.7l56.4,17.9s.4-534.5,388.4-599.9Z"/>
    <path class="st2" d="M668.7,805.5c-18,.3-33.4-4.1-46.5-10.8-42.5-22-60.1-69.7-60.1-69.7,5.1,34.2,21.4,65.4,44.2,90.2,58.2,63.4,164.9,70.7,230.7,14.5,38.9-33.3,56.3-87.5,46.9-137.4-15.7-84.2-90.7-124.8-152.1-105.8-12.6,3.9-24.8,9.7-35.5,17.5-9.7,7-18.3,15.7-25,25.6-2.9,4.3-5.4,8.9-7.5,13.7-2.1,4.7-5.3,14.8-5.9,17.7-.3,1.3-.6,2.7-.8,4-.2,1.3-.1,2.8-.4,4.1-.7,5.9-.8,11.8-.4,17.7.7,9.8,3.7,19.3,7.5,28.3,22.7,54,67.8,54.6,67.8,54.6,0,0-13.6,35.1-62.9,35.9ZM718.6,730.3c-26.2-15-50.4-71.7,9.8-105,62.5-34.4,116.3,11.1,126.2,62.9,11.1,58.1-21.8,88.8-21.8,88.8,0,0,16.9-40.2-14.7-82.1-23-30.3-47.9-19.5-47.9-19.5,20.7,38.5-21.2,72.3-51.6,54.8Z"/>
    <path class="st37" d="M728.3,340.9l-8.1,2.8,8.5,2.2c39.2,9.9,86.4,16.4,127.1,28.4,40.6,12,74.7,29.1,87.9,59.1l1.3,2.9,2.4-1.6c62.1-40.3,163.7-53.8,268.3-30.5,104.6,23.3,216.8,84.5,301.5,207.2-36.3-102.8-112.5-172.6-188.4-218.9-3.2-1.9-6.6-4-9.8-5.9-23.4-13.5-47.7-24.7-72.5-35-165.7-68.9-369.2-65.1-518.2-10.7Z"/>
    <path class="st36" d="M516.9,154.9c50,9.7,81.2-2.3,130.9-3.5,72-1.7,144.4,6.1,214.2,24.4,0,0,77.2,20.2,77.2,20.2l-77.5,19c-2.7.7-264.8,66.7-291.3,200.7-37,124.2,55,154.5,55,154.5-27.4-18.7-24.8-79-24.8-79,0,0,1-137.5,119.6-175.9,0,0,240.7-95.1,373.9-60.7-.3,0-.8-.8-1-1-41.2-38.6-94.4-66.5-146.1-87.8-53-21.9-108.8-36.7-165.4-45.1-112.5-16.7-212.1,22.4-319.9-26.1-12.6-5.7-39.1-18-43.5-33.5,13.4,48.1,49.5,84.2,98.7,93.8Z"/>
    <path class="st33" d="M1216.8,581.5h0c34.2-33.7,130.5-51.1,276.1,41.5-36.6-31.4-75.9-59.7-117.2-82.2-68.6-38-142.4-60.7-216.4-57.4-39.1,1.9-70.7,12.3-94.3,24.6-50.7,26.4-55.5,70.3-50,118.8,2.9,29.3,8.5,62.9,7.4,104.2v2.8c0,0,2.8,0,2.8,0,139.4-4.4,311.3,36.8,469.6,152.4-202.8-104.6-474.6-35.8-576.7,113.1,188.6-113.7,429.9-103.7,633.9-29.5v-.5c36.8,13.6,60.6,24.4,60.6,24.4-17.5-385.7-395.5-412.1-395.8-412.2Z"/>
    <path class="st32" d="M1143.9,1014.7h0s0,0,0,0h0s0,0,0,0c-45,59.1-96.7,118.5-149.7,160.2-82.1,65-155,84.4-219.4,96.6-48.6,9.3-92.2,14.3-131.7,31.2-39.8,16.7-75,45.7-106.2,101.9l-2.8,5.1,5.7-1.3c87.7-21.1,142.3,5.4,171.1,53.8,29,48.5,31.2,119.5,11.2,186.8l-2.7,9.7,7-7c54.4-52.3,60.8-130.7,43.7-201.6,0,0,301.3-58,373.9-435.3Z"/>
    <path class="st39" d="M652.9,1444.5c-33.4-22-83.8-23.9-152.1,4.1,28.9-155.6,111-250,197.3-321.2,87.4-71.9,184.8-121.8,230.5-194.6-71.6,57.2-169.1,104.4-240.6,148.8-69.1,43.1-133.4,91.4-181.1,155.9-46.7,63.6-82.4,136.4-104.2,222-23.9,94.5-42.4,211.9-23.1,339.1,7.2,49.2,16.8,85.6,31.3,129.3-5.2-38-9.1-89.7-7.9-129.8,1.6-65.1,15.1-108.8,34.1-137.6,29.2-44.2,72.5-65.1,109.6-63,37,2.4,68,27.4,73.6,77.9,5.4,49.5-16.7,115-78.2,168.5,48.5-27.9,84.1-65,107.7-102.1,36.6-56.7,56.2-125.3,54.7-183.7-1.1-48.8-17.3-91.2-51.4-113.6Z"/>
    <path class="st34" d="M589.9,1298.5c39.9-38.9,111-48.7,158-53.3,52-5.2,111.4-11.2,190.2-48.1l.8-.5.7-.8c33.8-68.5,95.9-125.1,171-166.5,60.2-29.5,107.6-49.1,168.9-62.6-129.9,3.6-289.2,55.9-384.2,98.3-124.4,56.4-247.1,134.1-305.4,233.6Z"/>
    <path class="st35" d="M1143.9,1138.5c165.9-195.2,464.6-74.1,464.6-74.1-382.3-221.5-464.6,74.1-464.6,74.1Z"/>
    <path class="st38" d="M576.5,2198c-78.8-125-102-296-45-423,9.3-20.3,23.3-46.4,29.1-69.9,2.8-11.9,3.7-23.3.4-33.6-2.8-8.9-8.7-16.3-18.6-22-1.3-.9-2.8-1.5-4.5-2.2-12.1-5.2-23.9-5.6-34.5-2.2-10.9,3.4-20.8,10.5-29.5,20.3-17.4,19.2-30,48.1-36.6,77.6-13.7,60-15.5,155,15.2,257.7,20.1,67.8,53.7,139.7,109,205.5,43.2,51.4,79.7,82.8,131.9,118-51.1-42.8-89.7-83-116.7-126.1Z"/>
    <polygon class="st31" points="1143.9 1014.7 1143.9 1014.7 1143.9 1014.7 1143.9 1014.7"/>
    <polygon class="st40" points="1143.9 1014.7 1143.9 1014.7 1143.9 1014.7 1143.9 1014.7"/>
    <polygon class="st46" points="1143.9 1014.7 1143.9 1014.7 1143.9 1014.7 1143.9 1014.7"/>
    <polygon class="st45" points="1143.9 1014.7 1143.9 1014.7 1143.9 1014.7 1143.9 1014.7"/>
    <polygon class="st42" points="1143.9 1014.7 1143.9 1014.7 1143.9 1014.7 1143.9 1014.7"/>
    <polygon class="st41" points="1143.9 1014.7 1143.9 1014.7 1143.9 1014.7 1143.9 1014.7"/>
    <polygon class="st43" points="1143.9 1014.7 1143.9 1014.7 1143.9 1014.7 1143.9 1014.7"/>
    <polygon class="st44" points="1143.9 1014.7 1143.9 1014.7 1143.9 1014.7 1143.9 1014.7"/>
    <polygon class="st48" points="1143.9 1014.7 1143.9 1014.7 1143.9 1014.7 1143.9 1014.7"/>
    <polygon class="st47" points="1143.9 1014.7 1143.9 1014.7 1143.9 1014.7 1143.9 1014.7"/>
    <polygon class="st29" points="1143.9 1014.7 1143.9 1014.7 1143.9 1014.7 1143.9 1014.7"/>
    <polygon class="st30" points="1143.9 1014.7 1143.9 1014.7 1143.9 1014.7 1143.9 1014.7"/>
    <polygon class="st10" points="1143.9 1014.7 1143.9 1014.7 1143.9 1014.7 1143.9 1014.7"/>
    <polygon class="st9" points="1143.9 1014.7 1143.9 1014.7 1143.9 1014.7 1143.9 1014.7"/>
    <polygon class="st12" points="1143.9 1014.7 1143.9 1014.7 1143.9 1014.7 1143.9 1014.7"/>
    <polygon class="st17" points="1143.9 1014.7 1143.9 1014.7 1143.9 1014.7 1143.9 1014.7"/>
    <polygon class="st14" points="1143.9 1014.7 1143.9 1014.7 1143.9 1014.7 1143.9 1014.7"/>
    <polygon class="st16" points="1143.9 1014.7 1143.9 1014.7 1143.9 1014.7 1143.9 1014.7"/>
    <polygon class="st18" points="1143.9 1014.7 1143.9 1014.7 1143.9 1014.7 1143.9 1014.7"/>
    <polygon class="st15" points="1143.9 1014.7 1143.9 1014.7 1143.9 1014.7 1143.9 1014.7"/>
    <polygon class="st11" points="1143.9 1014.7 1143.9 1014.7 1143.9 1014.7 1143.9 1014.7"/>
    <polygon class="st13" points="1143.9 1014.7 1143.9 1014.7 1143.9 1014.7 1143.9 1014.7"/>
    <polygon class="st19" points="1143.9 1014.7 1143.9 1014.7 1143.9 1014.7 1143.9 1014.7"/>
    <polygon class="st20" points="1143.9 1014.7 1143.9 1014.7 1143.9 1014.7 1143.9 1014.7"/>
    <polygon class="st21" points="1143.9 1014.7 1143.9 1014.7 1143.9 1014.7 1143.9 1014.7"/>
    <polygon class="st24" points="1143.9 1014.7 1143.9 1014.7 1143.9 1014.7 1143.9 1014.7"/>
    <polygon class="st25" points="1143.9 1014.7 1143.9 1014.7 1143.9 1014.7 1143.9 1014.7"/>
    <polygon class="st27" points="1143.9 1014.7 1143.9 1014.7 1143.9 1014.7 1143.9 1014.7"/>
    <polygon class="st22" points="1143.9 1014.7 1143.9 1014.7 1143.9 1014.7 1143.9 1014.7"/>
    <polygon class="st26" points="1143.9 1014.7 1143.9 1014.7 1143.9 1014.7 1143.9 1014.7"/>
    <polygon class="st23" points="1143.9 1014.7 1143.9 1014.7 1143.9 1014.7 1143.9 1014.7"/>
    <polygon class="st28" points="1143.9 1014.7 1143.9 1014.7 1143.9 1014.7 1143.9 1014.7"/>
  </g>
</svg>